<mxfile host="app.diagrams.net" modified="2020-04-13T16:14:24.220Z" agent="5.0 (Macintosh; Intel Mac OS X 10_14_6) AppleWebKit/537.36 (KHTML, like Gecko) Chrome/80.0.3987.163 Safari/537.36" etag="x9pZxz7uqBNZ9u37bU_y" version="12.9.11" type="github">
  <diagram id="G7wg8Uk2tAzZRFtgVAqS" name="Page-1">
    <mxGraphModel dx="1426" dy="905" grid="1" gridSize="10" guides="1" tooltips="1" connect="1" arrows="1" fold="1" page="1" pageScale="1" pageWidth="827" pageHeight="1169" math="0" shadow="0">
      <root>
        <mxCell id="0" />
        <mxCell id="1" parent="0" />
        <mxCell id="UYqncPUuAHH7SOn4xKhJ-1" value="" style="rounded=0;whiteSpace=wrap;html=1;fillColor=#ffe6cc;strokeColor=#d79b00;" vertex="1" parent="1">
          <mxGeometry y="80" width="1200" height="320" as="geometry" />
        </mxCell>
        <mxCell id="UYqncPUuAHH7SOn4xKhJ-2" value="Application process" style="text;html=1;strokeColor=none;fillColor=none;align=center;verticalAlign=middle;whiteSpace=wrap;rounded=0;fontStyle=1" vertex="1" parent="1">
          <mxGeometry x="15" y="100" width="125" height="20" as="geometry" />
        </mxCell>
        <mxCell id="UYqncPUuAHH7SOn4xKhJ-3" value="" style="whiteSpace=wrap;html=1;aspect=fixed;fillColor=#f8cecc;strokeColor=#b85450;" vertex="1" parent="1">
          <mxGeometry x="40" y="130" width="170" height="170" as="geometry" />
        </mxCell>
        <mxCell id="UYqncPUuAHH7SOn4xKhJ-7" style="edgeStyle=orthogonalEdgeStyle;rounded=0;orthogonalLoop=1;jettySize=auto;html=1;exitX=0.5;exitY=1;exitDx=0;exitDy=0;entryX=0.5;entryY=0;entryDx=0;entryDy=0;" edge="1" parent="1" source="UYqncPUuAHH7SOn4xKhJ-4" target="UYqncPUuAHH7SOn4xKhJ-6">
          <mxGeometry relative="1" as="geometry" />
        </mxCell>
        <mxCell id="UYqncPUuAHH7SOn4xKhJ-4" value="startActivity()" style="rounded=0;whiteSpace=wrap;html=1;" vertex="1" parent="1">
          <mxGeometry x="60" y="170" width="120" height="30" as="geometry" />
        </mxCell>
        <mxCell id="UYqncPUuAHH7SOn4xKhJ-5" value="Activity" style="text;html=1;strokeColor=none;fillColor=none;align=center;verticalAlign=middle;whiteSpace=wrap;rounded=0;" vertex="1" parent="1">
          <mxGeometry x="105" y="140" width="40" height="20" as="geometry" />
        </mxCell>
        <mxCell id="UYqncPUuAHH7SOn4xKhJ-6" value="startActivityForResult()" style="rounded=0;whiteSpace=wrap;html=1;" vertex="1" parent="1">
          <mxGeometry x="55" y="220" width="130" height="30" as="geometry" />
        </mxCell>
        <mxCell id="UYqncPUuAHH7SOn4xKhJ-8" value="" style="whiteSpace=wrap;html=1;aspect=fixed;fillColor=#f8cecc;strokeColor=#b85450;" vertex="1" parent="1">
          <mxGeometry x="231.25" y="130" width="170" height="170" as="geometry" />
        </mxCell>
        <mxCell id="UYqncPUuAHH7SOn4xKhJ-9" value="execStartActivity()" style="rounded=0;whiteSpace=wrap;html=1;" vertex="1" parent="1">
          <mxGeometry x="251.25" y="170" width="120" height="30" as="geometry" />
        </mxCell>
        <mxCell id="UYqncPUuAHH7SOn4xKhJ-10" value="Instrumentation" style="text;html=1;strokeColor=none;fillColor=none;align=center;verticalAlign=middle;whiteSpace=wrap;rounded=0;" vertex="1" parent="1">
          <mxGeometry x="258.75" y="140" width="105" height="20" as="geometry" />
        </mxCell>
        <mxCell id="UYqncPUuAHH7SOn4xKhJ-30" style="edgeStyle=orthogonalEdgeStyle;rounded=0;comic=0;jumpStyle=arc;orthogonalLoop=1;jettySize=auto;html=1;exitX=0.5;exitY=1;exitDx=0;exitDy=0;entryX=0.5;entryY=0;entryDx=0;entryDy=0;" edge="1" parent="1" source="UYqncPUuAHH7SOn4xKhJ-17" target="UYqncPUuAHH7SOn4xKhJ-29">
          <mxGeometry relative="1" as="geometry" />
        </mxCell>
        <mxCell id="UYqncPUuAHH7SOn4xKhJ-19" style="edgeStyle=orthogonalEdgeStyle;rounded=0;orthogonalLoop=1;jettySize=auto;html=1;exitX=1;exitY=0.5;exitDx=0;exitDy=0;entryX=0;entryY=0.5;entryDx=0;entryDy=0;" edge="1" parent="1" source="UYqncPUuAHH7SOn4xKhJ-6" target="UYqncPUuAHH7SOn4xKhJ-9">
          <mxGeometry relative="1" as="geometry" />
        </mxCell>
        <mxCell id="UYqncPUuAHH7SOn4xKhJ-43" value="" style="rounded=0;whiteSpace=wrap;html=1;fillColor=#ffe6cc;strokeColor=#d79b00;" vertex="1" parent="1">
          <mxGeometry y="440" width="1440" height="320" as="geometry" />
        </mxCell>
        <mxCell id="UYqncPUuAHH7SOn4xKhJ-16" value="" style="whiteSpace=wrap;html=1;aspect=fixed;fillColor=#f8cecc;strokeColor=#b85450;" vertex="1" parent="1">
          <mxGeometry x="40" y="475" width="170" height="170" as="geometry" />
        </mxCell>
        <mxCell id="UYqncPUuAHH7SOn4xKhJ-17" value="startActivity()" style="rounded=0;whiteSpace=wrap;html=1;" vertex="1" parent="1">
          <mxGeometry x="60" y="515" width="120" height="30" as="geometry" />
        </mxCell>
        <mxCell id="UYqncPUuAHH7SOn4xKhJ-18" value="ActivityTaskManagerService" style="text;html=1;strokeColor=none;fillColor=none;align=center;verticalAlign=middle;whiteSpace=wrap;rounded=0;" vertex="1" parent="1">
          <mxGeometry x="43.75" y="485" width="162.5" height="20" as="geometry" />
        </mxCell>
        <mxCell id="UYqncPUuAHH7SOn4xKhJ-29" value="startActivityAsUser()" style="rounded=0;whiteSpace=wrap;html=1;" vertex="1" parent="1">
          <mxGeometry x="60" y="565" width="120" height="30" as="geometry" />
        </mxCell>
        <mxCell id="UYqncPUuAHH7SOn4xKhJ-40" value="" style="rounded=0;whiteSpace=wrap;html=1;fillColor=#f8cecc;strokeColor=#b85450;" vertex="1" parent="1">
          <mxGeometry x="230" y="475" width="170" height="250" as="geometry" />
        </mxCell>
        <mxCell id="UYqncPUuAHH7SOn4xKhJ-33" value="execute()" style="rounded=0;whiteSpace=wrap;html=1;" vertex="1" parent="1">
          <mxGeometry x="255" y="515" width="120" height="30" as="geometry" />
        </mxCell>
        <mxCell id="UYqncPUuAHH7SOn4xKhJ-34" value="ActivityStarter" style="text;html=1;strokeColor=none;fillColor=none;align=center;verticalAlign=middle;whiteSpace=wrap;rounded=0;" vertex="1" parent="1">
          <mxGeometry x="238.75" y="485" width="162.5" height="20" as="geometry" />
        </mxCell>
        <mxCell id="UYqncPUuAHH7SOn4xKhJ-35" value="startActivityMayWait()" style="rounded=0;whiteSpace=wrap;html=1;" vertex="1" parent="1">
          <mxGeometry x="255" y="565" width="120" height="30" as="geometry" />
        </mxCell>
        <mxCell id="UYqncPUuAHH7SOn4xKhJ-47" style="edgeStyle=orthogonalEdgeStyle;rounded=0;comic=0;jumpStyle=arc;orthogonalLoop=1;jettySize=auto;html=1;exitX=0.5;exitY=1;exitDx=0;exitDy=0;entryX=0.5;entryY=0;entryDx=0;entryDy=0;" edge="1" parent="1" source="UYqncPUuAHH7SOn4xKhJ-38" target="UYqncPUuAHH7SOn4xKhJ-46">
          <mxGeometry relative="1" as="geometry" />
        </mxCell>
        <mxCell id="UYqncPUuAHH7SOn4xKhJ-38" value="startActivityMayWait()" style="rounded=0;whiteSpace=wrap;html=1;" vertex="1" parent="1">
          <mxGeometry x="255" y="615" width="120" height="30" as="geometry" />
        </mxCell>
        <mxCell id="UYqncPUuAHH7SOn4xKhJ-41" style="edgeStyle=orthogonalEdgeStyle;rounded=0;comic=0;jumpStyle=arc;orthogonalLoop=1;jettySize=auto;html=1;exitX=1;exitY=0.5;exitDx=0;exitDy=0;entryX=0;entryY=0.5;entryDx=0;entryDy=0;" edge="1" parent="1" source="UYqncPUuAHH7SOn4xKhJ-29" target="UYqncPUuAHH7SOn4xKhJ-33">
          <mxGeometry relative="1" as="geometry" />
        </mxCell>
        <mxCell id="UYqncPUuAHH7SOn4xKhJ-36" style="edgeStyle=orthogonalEdgeStyle;rounded=0;comic=0;jumpStyle=arc;orthogonalLoop=1;jettySize=auto;html=1;exitX=0.5;exitY=1;exitDx=0;exitDy=0;entryX=0.5;entryY=0;entryDx=0;entryDy=0;" edge="1" parent="1" source="UYqncPUuAHH7SOn4xKhJ-33" target="UYqncPUuAHH7SOn4xKhJ-35">
          <mxGeometry relative="1" as="geometry" />
        </mxCell>
        <mxCell id="UYqncPUuAHH7SOn4xKhJ-42" style="edgeStyle=orthogonalEdgeStyle;rounded=0;comic=0;jumpStyle=arc;orthogonalLoop=1;jettySize=auto;html=1;exitX=0.5;exitY=1;exitDx=0;exitDy=0;entryX=0.5;entryY=0;entryDx=0;entryDy=0;" edge="1" parent="1" source="UYqncPUuAHH7SOn4xKhJ-35" target="UYqncPUuAHH7SOn4xKhJ-38">
          <mxGeometry relative="1" as="geometry" />
        </mxCell>
        <mxCell id="UYqncPUuAHH7SOn4xKhJ-44" style="edgeStyle=orthogonalEdgeStyle;rounded=0;comic=0;jumpStyle=arc;orthogonalLoop=1;jettySize=auto;html=1;exitX=0.5;exitY=1;exitDx=0;exitDy=0;entryX=0;entryY=0.5;entryDx=0;entryDy=0;" edge="1" parent="1" source="UYqncPUuAHH7SOn4xKhJ-9" target="UYqncPUuAHH7SOn4xKhJ-17">
          <mxGeometry relative="1" as="geometry">
            <Array as="points">
              <mxPoint x="311" y="375" />
              <mxPoint x="20" y="375" />
              <mxPoint x="20" y="530" />
            </Array>
          </mxGeometry>
        </mxCell>
        <mxCell id="UYqncPUuAHH7SOn4xKhJ-45" value="&lt;span style=&quot;&quot;&gt;ActivityTaskManagerService process&lt;/span&gt;" style="text;html=1;strokeColor=none;fillColor=none;align=center;verticalAlign=middle;whiteSpace=wrap;rounded=0;fontStyle=1" vertex="1" parent="1">
          <mxGeometry x="15" y="725" width="223.75" height="20" as="geometry" />
        </mxCell>
        <mxCell id="UYqncPUuAHH7SOn4xKhJ-46" value="startActivityUnchecked()" style="rounded=0;whiteSpace=wrap;html=1;" vertex="1" parent="1">
          <mxGeometry x="240" y="670" width="150" height="30" as="geometry" />
        </mxCell>
        <mxCell id="UYqncPUuAHH7SOn4xKhJ-48" value="" style="rounded=0;whiteSpace=wrap;html=1;fillColor=#f8cecc;strokeColor=#b85450;" vertex="1" parent="1">
          <mxGeometry x="420" y="475" width="170" height="250" as="geometry" />
        </mxCell>
        <mxCell id="UYqncPUuAHH7SOn4xKhJ-49" value="RootActivityContainer" style="text;html=1;strokeColor=none;fillColor=none;align=center;verticalAlign=middle;whiteSpace=wrap;rounded=0;" vertex="1" parent="1">
          <mxGeometry x="428.75" y="485" width="162.5" height="20" as="geometry" />
        </mxCell>
        <mxCell id="UYqncPUuAHH7SOn4xKhJ-50" value="resumeFocusedStacks&lt;br&gt;TopActivities()" style="rounded=0;whiteSpace=wrap;html=1;" vertex="1" parent="1">
          <mxGeometry x="437.5" y="515" width="135" height="35" as="geometry" />
        </mxCell>
        <mxCell id="UYqncPUuAHH7SOn4xKhJ-51" style="edgeStyle=orthogonalEdgeStyle;rounded=0;comic=0;jumpStyle=arc;orthogonalLoop=1;jettySize=auto;html=1;exitX=1;exitY=0.5;exitDx=0;exitDy=0;entryX=0;entryY=0.5;entryDx=0;entryDy=0;" edge="1" parent="1" source="UYqncPUuAHH7SOn4xKhJ-46" target="UYqncPUuAHH7SOn4xKhJ-50">
          <mxGeometry relative="1" as="geometry">
            <Array as="points">
              <mxPoint x="410" y="685" />
              <mxPoint x="410" y="533" />
            </Array>
          </mxGeometry>
        </mxCell>
        <mxCell id="UYqncPUuAHH7SOn4xKhJ-52" value="" style="rounded=0;whiteSpace=wrap;html=1;fillColor=#f8cecc;strokeColor=#b85450;" vertex="1" parent="1">
          <mxGeometry x="610" y="475" width="170" height="250" as="geometry" />
        </mxCell>
        <mxCell id="UYqncPUuAHH7SOn4xKhJ-59" style="edgeStyle=orthogonalEdgeStyle;rounded=0;comic=0;jumpStyle=arc;orthogonalLoop=1;jettySize=auto;html=1;exitX=0.5;exitY=1;exitDx=0;exitDy=0;entryX=0.5;entryY=0;entryDx=0;entryDy=0;" edge="1" parent="1" source="UYqncPUuAHH7SOn4xKhJ-53" target="UYqncPUuAHH7SOn4xKhJ-55">
          <mxGeometry relative="1" as="geometry" />
        </mxCell>
        <mxCell id="UYqncPUuAHH7SOn4xKhJ-53" value="resumeTopActivity&lt;br&gt;UncheckedLocked()" style="rounded=0;whiteSpace=wrap;html=1;" vertex="1" parent="1">
          <mxGeometry x="635" y="515" width="120" height="35" as="geometry" />
        </mxCell>
        <mxCell id="UYqncPUuAHH7SOn4xKhJ-54" value="ActivityStack" style="text;html=1;strokeColor=none;fillColor=none;align=center;verticalAlign=middle;whiteSpace=wrap;rounded=0;" vertex="1" parent="1">
          <mxGeometry x="618.75" y="485" width="162.5" height="20" as="geometry" />
        </mxCell>
        <mxCell id="UYqncPUuAHH7SOn4xKhJ-60" style="edgeStyle=orthogonalEdgeStyle;rounded=0;comic=0;jumpStyle=arc;orthogonalLoop=1;jettySize=auto;html=1;exitX=0.5;exitY=1;exitDx=0;exitDy=0;entryX=0.5;entryY=0;entryDx=0;entryDy=0;" edge="1" parent="1" source="UYqncPUuAHH7SOn4xKhJ-55" target="UYqncPUuAHH7SOn4xKhJ-56">
          <mxGeometry relative="1" as="geometry" />
        </mxCell>
        <mxCell id="UYqncPUuAHH7SOn4xKhJ-55" value="resumeTopActivity&lt;br&gt;InnerLocked()" style="rounded=0;whiteSpace=wrap;html=1;" vertex="1" parent="1">
          <mxGeometry x="635" y="565" width="120" height="30" as="geometry" />
        </mxCell>
        <mxCell id="UYqncPUuAHH7SOn4xKhJ-56" value="startPausingLocked()" style="rounded=0;whiteSpace=wrap;html=1;" vertex="1" parent="1">
          <mxGeometry x="635" y="615" width="120" height="30" as="geometry" />
        </mxCell>
        <mxCell id="UYqncPUuAHH7SOn4xKhJ-58" style="edgeStyle=orthogonalEdgeStyle;rounded=0;comic=0;jumpStyle=arc;orthogonalLoop=1;jettySize=auto;html=1;exitX=1;exitY=0.5;exitDx=0;exitDy=0;" edge="1" parent="1" source="UYqncPUuAHH7SOn4xKhJ-50" target="UYqncPUuAHH7SOn4xKhJ-53">
          <mxGeometry relative="1" as="geometry" />
        </mxCell>
        <mxCell id="UYqncPUuAHH7SOn4xKhJ-64" value="" style="rounded=0;whiteSpace=wrap;html=1;fillColor=#f8cecc;strokeColor=#b85450;" vertex="1" parent="1">
          <mxGeometry x="820" y="475" width="170" height="95" as="geometry" />
        </mxCell>
        <mxCell id="UYqncPUuAHH7SOn4xKhJ-65" value="ClientLifecycleManager" style="text;html=1;strokeColor=none;fillColor=none;align=center;verticalAlign=middle;whiteSpace=wrap;rounded=0;" vertex="1" parent="1">
          <mxGeometry x="827.5" y="485" width="162.5" height="20" as="geometry" />
        </mxCell>
        <mxCell id="UYqncPUuAHH7SOn4xKhJ-66" value="scheduleTransaction()" style="rounded=0;whiteSpace=wrap;html=1;" vertex="1" parent="1">
          <mxGeometry x="836.25" y="515" width="135" height="35" as="geometry" />
        </mxCell>
        <mxCell id="UYqncPUuAHH7SOn4xKhJ-67" style="edgeStyle=orthogonalEdgeStyle;rounded=0;comic=0;jumpStyle=arc;orthogonalLoop=1;jettySize=auto;html=1;exitX=1;exitY=0.5;exitDx=0;exitDy=0;entryX=0;entryY=0.5;entryDx=0;entryDy=0;strokeColor=#FF0000;" edge="1" parent="1" source="UYqncPUuAHH7SOn4xKhJ-56" target="UYqncPUuAHH7SOn4xKhJ-66">
          <mxGeometry relative="1" as="geometry">
            <mxPoint x="781.25" y="630" as="sourcePoint" />
            <Array as="points">
              <mxPoint x="800" y="630" />
              <mxPoint x="800" y="533" />
            </Array>
          </mxGeometry>
        </mxCell>
        <mxCell id="UYqncPUuAHH7SOn4xKhJ-97" value="&lt;div&gt;&lt;span style=&quot;font-size: 11px&quot;&gt;PauseActivityItem&lt;/span&gt;&lt;/div&gt;&lt;div&gt;&lt;br&gt;&lt;/div&gt;" style="edgeLabel;html=1;align=center;verticalAlign=middle;resizable=0;points=[];labelBackgroundColor=none;fontColor=#FF0000;" vertex="1" connectable="0" parent="UYqncPUuAHH7SOn4xKhJ-67">
          <mxGeometry x="0.0331" y="4" relative="1" as="geometry">
            <mxPoint x="21.5" y="2" as="offset" />
          </mxGeometry>
        </mxCell>
        <mxCell id="UYqncPUuAHH7SOn4xKhJ-68" value="" style="rounded=0;whiteSpace=wrap;html=1;fillColor=#f8cecc;strokeColor=#b85450;" vertex="1" parent="1">
          <mxGeometry x="1010" y="475" width="170" height="250" as="geometry" />
        </mxCell>
        <mxCell id="UYqncPUuAHH7SOn4xKhJ-69" value="ClientTransaction" style="text;html=1;strokeColor=none;fillColor=none;align=center;verticalAlign=middle;whiteSpace=wrap;rounded=0;" vertex="1" parent="1">
          <mxGeometry x="1013.75" y="485" width="162.5" height="20" as="geometry" />
        </mxCell>
        <mxCell id="UYqncPUuAHH7SOn4xKhJ-70" value="schedule()" style="rounded=0;whiteSpace=wrap;html=1;" vertex="1" parent="1">
          <mxGeometry x="1026.25" y="515" width="135" height="35" as="geometry" />
        </mxCell>
        <mxCell id="UYqncPUuAHH7SOn4xKhJ-71" style="edgeStyle=orthogonalEdgeStyle;rounded=0;comic=0;jumpStyle=arc;orthogonalLoop=1;jettySize=auto;html=1;exitX=1;exitY=0.5;exitDx=0;exitDy=0;entryX=0;entryY=0.5;entryDx=0;entryDy=0;" edge="1" parent="1" source="UYqncPUuAHH7SOn4xKhJ-66" target="UYqncPUuAHH7SOn4xKhJ-70">
          <mxGeometry relative="1" as="geometry" />
        </mxCell>
        <mxCell id="UYqncPUuAHH7SOn4xKhJ-73" value="" style="rounded=0;whiteSpace=wrap;html=1;fillColor=#f8cecc;strokeColor=#b85450;" vertex="1" parent="1">
          <mxGeometry x="425" y="130" width="355" height="250" as="geometry" />
        </mxCell>
        <mxCell id="UYqncPUuAHH7SOn4xKhJ-77" value="" style="rounded=0;whiteSpace=wrap;html=1;fillColor=#d5e8d4;strokeColor=#82b366;" vertex="1" parent="1">
          <mxGeometry x="438.15" y="170" width="155" height="200" as="geometry" />
        </mxCell>
        <mxCell id="UYqncPUuAHH7SOn4xKhJ-74" value="ApplicationThread" style="text;html=1;strokeColor=none;fillColor=none;align=center;verticalAlign=middle;whiteSpace=wrap;rounded=0;" vertex="1" parent="1">
          <mxGeometry x="437.5" y="180" width="162.5" height="20" as="geometry" />
        </mxCell>
        <mxCell id="UYqncPUuAHH7SOn4xKhJ-75" value="scheduleTransaction()" style="rounded=0;whiteSpace=wrap;html=1;" vertex="1" parent="1">
          <mxGeometry x="448.15" y="217.5" width="135" height="35" as="geometry" />
        </mxCell>
        <mxCell id="UYqncPUuAHH7SOn4xKhJ-78" value="ActivityThread &lt;i&gt;&lt;u&gt;extends&lt;/u&gt;&lt;/i&gt; ClientTransactionHandler" style="text;html=1;strokeColor=none;fillColor=none;align=center;verticalAlign=middle;whiteSpace=wrap;rounded=0;" vertex="1" parent="1">
          <mxGeometry x="465" y="140" width="275" height="20" as="geometry" />
        </mxCell>
        <mxCell id="UYqncPUuAHH7SOn4xKhJ-76" style="edgeStyle=orthogonalEdgeStyle;rounded=0;comic=0;jumpStyle=arc;orthogonalLoop=1;jettySize=auto;html=1;exitX=1;exitY=0.5;exitDx=0;exitDy=0;entryX=0.5;entryY=1;entryDx=0;entryDy=0;" edge="1" parent="1" source="UYqncPUuAHH7SOn4xKhJ-70" target="UYqncPUuAHH7SOn4xKhJ-75">
          <mxGeometry relative="1" as="geometry">
            <mxPoint x="1418.1" y="532.5" as="sourcePoint" />
            <Array as="points">
              <mxPoint x="1190" y="533" />
              <mxPoint x="1190" y="420" />
              <mxPoint x="516" y="420" />
            </Array>
          </mxGeometry>
        </mxCell>
        <mxCell id="UYqncPUuAHH7SOn4xKhJ-81" value="" style="rounded=0;whiteSpace=wrap;html=1;fillColor=#f8cecc;strokeColor=#b85450;" vertex="1" parent="1">
          <mxGeometry x="798.75" y="130" width="170" height="250" as="geometry" />
        </mxCell>
        <mxCell id="UYqncPUuAHH7SOn4xKhJ-119" style="edgeStyle=orthogonalEdgeStyle;rounded=0;comic=0;jumpStyle=arc;orthogonalLoop=1;jettySize=auto;html=1;exitX=0.5;exitY=1;exitDx=0;exitDy=0;entryX=0.5;entryY=0;entryDx=0;entryDy=0;strokeColor=#000000;fontColor=#006633;" edge="1" parent="1" source="UYqncPUuAHH7SOn4xKhJ-83" target="UYqncPUuAHH7SOn4xKhJ-92">
          <mxGeometry relative="1" as="geometry" />
        </mxCell>
        <mxCell id="UYqncPUuAHH7SOn4xKhJ-83" value="execute()" style="rounded=0;whiteSpace=wrap;html=1;" vertex="1" parent="1">
          <mxGeometry x="815" y="170" width="135" height="35" as="geometry" />
        </mxCell>
        <mxCell id="UYqncPUuAHH7SOn4xKhJ-85" value="" style="rounded=0;whiteSpace=wrap;html=1;fillColor=#d5e8d4;strokeColor=#82b366;" vertex="1" parent="1">
          <mxGeometry x="610.65" y="170" width="155" height="200" as="geometry" />
        </mxCell>
        <mxCell id="UYqncPUuAHH7SOn4xKhJ-86" value="H" style="text;html=1;strokeColor=none;fillColor=none;align=center;verticalAlign=middle;whiteSpace=wrap;rounded=0;" vertex="1" parent="1">
          <mxGeometry x="610" y="180" width="162.5" height="20" as="geometry" />
        </mxCell>
        <mxCell id="UYqncPUuAHH7SOn4xKhJ-90" style="edgeStyle=orthogonalEdgeStyle;rounded=0;comic=0;jumpStyle=arc;orthogonalLoop=1;jettySize=auto;html=1;exitX=0.5;exitY=1;exitDx=0;exitDy=0;entryX=0.5;entryY=0;entryDx=0;entryDy=0;" edge="1" parent="1" source="UYqncPUuAHH7SOn4xKhJ-87" target="UYqncPUuAHH7SOn4xKhJ-89">
          <mxGeometry relative="1" as="geometry" />
        </mxCell>
        <mxCell id="UYqncPUuAHH7SOn4xKhJ-87" value="sendMessage(&lt;br&gt;&lt;font style=&quot;font-size: 13px&quot;&gt;EXECUTE_&lt;br&gt;TRANSACTION)&lt;/font&gt;" style="rounded=0;whiteSpace=wrap;html=1;" vertex="1" parent="1">
          <mxGeometry x="618.75" y="210" width="135" height="50" as="geometry" />
        </mxCell>
        <mxCell id="UYqncPUuAHH7SOn4xKhJ-88" style="edgeStyle=orthogonalEdgeStyle;rounded=0;comic=0;jumpStyle=arc;orthogonalLoop=1;jettySize=auto;html=1;exitX=1;exitY=0.5;exitDx=0;exitDy=0;" edge="1" parent="1" source="UYqncPUuAHH7SOn4xKhJ-75" target="UYqncPUuAHH7SOn4xKhJ-87">
          <mxGeometry relative="1" as="geometry" />
        </mxCell>
        <mxCell id="UYqncPUuAHH7SOn4xKhJ-89" value="handleMessage(&lt;br&gt;&lt;font style=&quot;font-size: 13px&quot;&gt;EXECUTE_&lt;br&gt;TRANSACTION)&lt;/font&gt;" style="rounded=0;whiteSpace=wrap;html=1;" vertex="1" parent="1">
          <mxGeometry x="618.75" y="290" width="135" height="50" as="geometry" />
        </mxCell>
        <mxCell id="UYqncPUuAHH7SOn4xKhJ-91" value="TransactionExecutor" style="text;html=1;strokeColor=none;fillColor=none;align=center;verticalAlign=middle;whiteSpace=wrap;rounded=0;" vertex="1" parent="1">
          <mxGeometry x="862.5" y="140" width="40" height="20" as="geometry" />
        </mxCell>
        <mxCell id="UYqncPUuAHH7SOn4xKhJ-84" style="edgeStyle=orthogonalEdgeStyle;rounded=0;comic=0;jumpStyle=arc;orthogonalLoop=1;jettySize=auto;html=1;entryX=0;entryY=0.5;entryDx=0;entryDy=0;exitX=0.5;exitY=1;exitDx=0;exitDy=0;" edge="1" parent="1" source="UYqncPUuAHH7SOn4xKhJ-89" target="UYqncPUuAHH7SOn4xKhJ-83">
          <mxGeometry relative="1" as="geometry">
            <mxPoint x="767.5" y="157.5" as="sourcePoint" />
            <Array as="points">
              <mxPoint x="686" y="360" />
              <mxPoint x="790" y="360" />
              <mxPoint x="790" y="188" />
            </Array>
          </mxGeometry>
        </mxCell>
        <mxCell id="UYqncPUuAHH7SOn4xKhJ-92" value="" style="rounded=0;whiteSpace=wrap;html=1;fillColor=#dae8fc;strokeColor=#6c8ebf;" vertex="1" parent="1">
          <mxGeometry x="810.63" y="225" width="143.75" height="145" as="geometry" />
        </mxCell>
        <mxCell id="UYqncPUuAHH7SOn4xKhJ-93" value="executeLifecycleState()" style="rounded=0;whiteSpace=wrap;html=1;" vertex="1" parent="1">
          <mxGeometry x="821.41" y="237.5" width="128.59" height="35" as="geometry" />
        </mxCell>
        <mxCell id="UYqncPUuAHH7SOn4xKhJ-94" value="&lt;span&gt;executeCallbacks()&lt;/span&gt;" style="rounded=0;whiteSpace=wrap;html=1;" vertex="1" parent="1">
          <mxGeometry x="820" y="305" width="130" height="35" as="geometry" />
        </mxCell>
        <mxCell id="UYqncPUuAHH7SOn4xKhJ-95" value="" style="rounded=0;whiteSpace=wrap;html=1;fillColor=#f8cecc;strokeColor=#b85450;" vertex="1" parent="1">
          <mxGeometry x="990" y="130" width="170" height="110" as="geometry" />
        </mxCell>
        <mxCell id="UYqncPUuAHH7SOn4xKhJ-96" value="" style="rounded=0;whiteSpace=wrap;html=1;fillColor=#f8cecc;strokeColor=#b85450;" vertex="1" parent="1">
          <mxGeometry x="988.75" y="270" width="170" height="110" as="geometry" />
        </mxCell>
        <mxCell id="UYqncPUuAHH7SOn4xKhJ-101" value="draw by&amp;nbsp; zhangchaozhou" style="text;html=1;strokeColor=none;fillColor=none;align=center;verticalAlign=middle;whiteSpace=wrap;rounded=0;labelBackgroundColor=none;fontColor=#CC6600;" vertex="1" parent="1">
          <mxGeometry x="170" y="100" width="150" height="20" as="geometry" />
        </mxCell>
        <mxCell id="UYqncPUuAHH7SOn4xKhJ-102" value="" style="rounded=0;whiteSpace=wrap;html=1;fillColor=#f8cecc;strokeColor=#b85450;" vertex="1" parent="1">
          <mxGeometry x="820" y="595" width="170" height="155" as="geometry" />
        </mxCell>
        <mxCell id="UYqncPUuAHH7SOn4xKhJ-103" value="ActivityStackSupervisor" style="text;html=1;strokeColor=none;fillColor=none;align=center;verticalAlign=middle;whiteSpace=wrap;rounded=0;labelBackgroundColor=none;fontColor=#000000;" vertex="1" parent="1">
          <mxGeometry x="841.75" y="610" width="120" height="20" as="geometry" />
        </mxCell>
        <mxCell id="UYqncPUuAHH7SOn4xKhJ-111" style="edgeStyle=orthogonalEdgeStyle;rounded=0;comic=0;jumpStyle=arc;orthogonalLoop=1;jettySize=auto;html=1;exitX=0.5;exitY=1;exitDx=0;exitDy=0;entryX=0.5;entryY=0;entryDx=0;entryDy=0;strokeColor=#006633;fontColor=#006633;" edge="1" parent="1" source="UYqncPUuAHH7SOn4xKhJ-107" target="UYqncPUuAHH7SOn4xKhJ-108">
          <mxGeometry relative="1" as="geometry" />
        </mxCell>
        <mxCell id="UYqncPUuAHH7SOn4xKhJ-107" value="startSpecific&lt;br&gt;ActivityLocked()" style="rounded=0;whiteSpace=wrap;html=1;" vertex="1" parent="1">
          <mxGeometry x="845" y="645" width="120" height="35" as="geometry" />
        </mxCell>
        <mxCell id="UYqncPUuAHH7SOn4xKhJ-112" style="edgeStyle=orthogonalEdgeStyle;rounded=0;comic=0;jumpStyle=arc;orthogonalLoop=1;jettySize=auto;html=1;exitX=1;exitY=0.5;exitDx=0;exitDy=0;entryX=0.5;entryY=1;entryDx=0;entryDy=0;strokeColor=#006633;fontColor=#006633;" edge="1" parent="1" source="UYqncPUuAHH7SOn4xKhJ-108" target="UYqncPUuAHH7SOn4xKhJ-66">
          <mxGeometry relative="1" as="geometry">
            <Array as="points">
              <mxPoint x="1000" y="720" />
              <mxPoint x="1000" y="580" />
              <mxPoint x="904" y="580" />
            </Array>
          </mxGeometry>
        </mxCell>
        <mxCell id="UYqncPUuAHH7SOn4xKhJ-108" value="realStart&lt;br&gt;ActivityLocked()" style="rounded=0;whiteSpace=wrap;html=1;" vertex="1" parent="1">
          <mxGeometry x="845" y="702.5" width="120" height="35" as="geometry" />
        </mxCell>
        <mxCell id="UYqncPUuAHH7SOn4xKhJ-109" style="edgeStyle=orthogonalEdgeStyle;rounded=0;comic=0;jumpStyle=arc;orthogonalLoop=1;jettySize=auto;html=1;exitX=1;exitY=0.5;exitDx=0;exitDy=0;entryX=0;entryY=0.5;entryDx=0;entryDy=0;strokeColor=#006633;fontColor=#000000;" edge="1" parent="1" source="UYqncPUuAHH7SOn4xKhJ-56" target="UYqncPUuAHH7SOn4xKhJ-107">
          <mxGeometry relative="1" as="geometry" />
        </mxCell>
        <mxCell id="UYqncPUuAHH7SOn4xKhJ-110" value="LaunchActivityItem" style="edgeLabel;html=1;align=center;verticalAlign=middle;resizable=0;points=[];fontColor=#006633;labelBackgroundColor=none;" vertex="1" connectable="0" parent="UYqncPUuAHH7SOn4xKhJ-109">
          <mxGeometry x="0.0612" y="3" relative="1" as="geometry">
            <mxPoint x="-13" as="offset" />
          </mxGeometry>
        </mxCell>
        <mxCell id="UYqncPUuAHH7SOn4xKhJ-113" value="execute()" style="rounded=0;whiteSpace=wrap;html=1;" vertex="1" parent="1">
          <mxGeometry x="1010" y="175" width="135" height="35" as="geometry" />
        </mxCell>
        <mxCell id="UYqncPUuAHH7SOn4xKhJ-114" value="execute()" style="rounded=0;whiteSpace=wrap;html=1;" vertex="1" parent="1">
          <mxGeometry x="1010" y="320" width="135" height="35" as="geometry" />
        </mxCell>
        <mxCell id="UYqncPUuAHH7SOn4xKhJ-115" value="&lt;div&gt;&lt;span style=&quot;font-size: 11px&quot;&gt;PauseActivityItem&lt;/span&gt;&lt;/div&gt;" style="text;html=1;strokeColor=none;fillColor=none;align=center;verticalAlign=middle;whiteSpace=wrap;rounded=0;" vertex="1" parent="1">
          <mxGeometry x="993.75" y="140" width="162.5" height="20" as="geometry" />
        </mxCell>
        <mxCell id="UYqncPUuAHH7SOn4xKhJ-116" value="&lt;span style=&quot;font-size: 11px&quot;&gt;LaunchActivityItem&lt;/span&gt;" style="text;html=1;strokeColor=none;fillColor=none;align=center;verticalAlign=middle;whiteSpace=wrap;rounded=0;" vertex="1" parent="1">
          <mxGeometry x="992.5" y="280" width="162.5" height="20" as="geometry" />
        </mxCell>
        <mxCell id="UYqncPUuAHH7SOn4xKhJ-117" style="edgeStyle=orthogonalEdgeStyle;rounded=0;comic=0;jumpStyle=arc;orthogonalLoop=1;jettySize=auto;html=1;exitX=1;exitY=0.5;exitDx=0;exitDy=0;entryX=0;entryY=0.5;entryDx=0;entryDy=0;strokeColor=#FF0000;fontColor=#006633;" edge="1" parent="1" source="UYqncPUuAHH7SOn4xKhJ-93" target="UYqncPUuAHH7SOn4xKhJ-113">
          <mxGeometry relative="1" as="geometry" />
        </mxCell>
        <mxCell id="UYqncPUuAHH7SOn4xKhJ-118" style="edgeStyle=orthogonalEdgeStyle;rounded=0;comic=0;jumpStyle=arc;orthogonalLoop=1;jettySize=auto;html=1;exitX=1;exitY=0.5;exitDx=0;exitDy=0;entryX=0;entryY=0.5;entryDx=0;entryDy=0;strokeColor=#006633;fontColor=#006633;" edge="1" parent="1" source="UYqncPUuAHH7SOn4xKhJ-94" target="UYqncPUuAHH7SOn4xKhJ-114">
          <mxGeometry relative="1" as="geometry" />
        </mxCell>
      </root>
    </mxGraphModel>
  </diagram>
</mxfile>
